{
    "asset" : {
        "generator" : "Khronos glTF Blender I/O v1.7.33",
        "version" : "2.0"
    },
    "scene" : 0,
    "scenes" : [
        {
            "name" : "Scene",
            "nodes" : [
                14
            ]
        }
    ],
    "nodes" : [
        {
            "name" : "laser_0",
            "rotation" : [
                0.7071068286895752,
                0,
                0,
                0.7071067094802856
            ],
            "translation" : [
                10.270828247070312,
                3.9652903079986572,
                -2.865305185317993
            ]
        },
        {
            "name" : "laser_1",
            "rotation" : [
                0.7071068286895752,
                0,
                0,
                0.7071067094802856
            ],
            "translation" : [
                10.348029136657715,
                3.965289354324341,
                2.731109380722046
            ]
        },
        {
            "name" : "laser_2",
            "rotation" : [
                0.7071068286895752,
                0,
                0,
                0.7071067094802856
            ],
            "translation" : [
                -10.375123977661133,
                3.965289354324341,
                2.731109380722046
            ]
        },
        {
            "name" : "laser_3",
            "rotation" : [
                0.7071068286895752,
                0,
                0,
                0.7071067094802856
            ],
            "translation" : [
                -10.375123977661133,
                3.9652903079986572,
                -2.9331138134002686
            ]
        },
        {
            "name" : "thruster_0",
            "rotation" : [
                0.7071068286895752,
                0,
                0,
                0.7071067094802856
            ],
            "translation" : [
                -2.8079841136932373,
                -11.706538200378418,
                -1.9421206712722778
            ]
        },
        {
            "name" : "thruster_1",
            "rotation" : [
                0.7071068286895752,
                0,
                0,
                0.7071067094802856
            ],
            "translation" : [
                -2.85562801361084,
                -11.706539154052734,
                1.8598695993423462
            ]
        },
        {
            "name" : "thruster_2",
            "rotation" : [
                0.7071068286895752,
                0,
                0,
                0.7071067094802856
            ],
            "translation" : [
                2.833065986633301,
                -11.706539154052734,
                1.8598695993423462
            ]
        },
        {
            "name" : "thruster_3",
            "rotation" : [
                0.7071068286895752,
                0,
                0,
                0.7071067094802856
            ],
            "translation" : [
                2.7949507236480713,
                -11.706538200378418,
                -1.9707070589065552
            ]
        },
        {
            "mesh" : 0,
            "name" : "thruster_glow.001",
            "rotation" : [
                0.5554265975952148,
                0.4376086890697479,
                -0.4376084804534912,
                0.5554265975952148
            ],
            "scale" : [
                0.05663081631064415,
                0.11135265976190567,
                0.285312682390213
            ],
            "translation" : [
                2.921370029449463,
                -11.276115417480469,
                1.4568018913269043
            ]
        },
        {
            "mesh" : 1,
            "name" : "thruster_glow.002",
            "rotation" : [
                0.5406265258789062,
                0.4557664394378662,
                -0.4557662010192871,
                0.5406265258789062
            ],
            "scale" : [
                0.05663081631064415,
                0.11135266721248627,
                0.285312682390213
            ],
            "translation" : [
                2.8899073600769043,
                -11.276114463806152,
                -2.381643533706665
            ]
        },
        {
            "mesh" : 2,
            "name" : "thruster_glow.003",
            "rotation" : [
                0.4517328143119812,
                0.544001579284668,
                -0.5440012216567993,
                0.45173269510269165
            ],
            "scale" : [
                0.05663081631064415,
                0.11135266721248627,
                0.285312682390213
            ],
            "translation" : [
                -2.899225950241089,
                -11.276114463806152,
                -2.3737778663635254
            ]
        },
        {
            "mesh" : 3,
            "name" : "thruster_glow.009",
            "rotation" : [
                0.40994513034820557,
                0.5761468410491943,
                -0.5761465430259705,
                0.4099450707435608
            ],
            "scale" : [
                0.05663082003593445,
                0.11135266721248627,
                0.285312682390213
            ],
            "translation" : [
                -2.923766613006592,
                -11.276115417480469,
                1.4577457904815674
            ]
        },
        {
            "mesh" : 4,
            "name" : "Object_2"
        },
        {
            "children" : [
                12
            ],
            "name" : "Xwing_Lowpoly.obj.cleaner.materialmerger.gles"
        },
        {
            "children" : [
                0,
                1,
                2,
                3,
                4,
                5,
                6,
                7,
                8,
                9,
                10,
                11,
                13
            ],
            "name" : "Sketchfab_model",
            "rotation" : [
                -0.7071068286895752,
                0,
                0,
                0.7071068286895752
            ]
        }
    ],
    "materials" : [
        {
            "doubleSided" : true,
            "emissiveFactor" : [
                1,
                0,
                0.02520507259760052
            ],
            "name" : "Material.001",
            "pbrMetallicRoughness" : {}
        },
        {
            "doubleSided" : true,
            "name" : "initialShadingGroup",
            "pbrMetallicRoughness" : {
                "baseColorTexture" : {
                    "index" : 0
                },
                "metallicFactor" : 0,
                "roughnessFactor" : 0.6000000238418579
            }
        }
    ],
    "meshes" : [
        {
            "name" : "Cube.010",
            "primitives" : [
                {
                    "attributes" : {
                        "POSITION" : 0,
                        "NORMAL" : 1,
                        "TEXCOORD_0" : 2
                    },
                    "indices" : 3,
                    "material" : 0
                }
            ]
        },
        {
            "name" : "Cube.011",
            "primitives" : [
                {
                    "attributes" : {
                        "POSITION" : 4,
                        "NORMAL" : 5,
                        "TEXCOORD_0" : 6
                    },
                    "indices" : 3,
                    "material" : 0
                }
            ]
        },
        {
            "name" : "Cube.012",
            "primitives" : [
                {
                    "attributes" : {
                        "POSITION" : 7,
                        "NORMAL" : 8,
                        "TEXCOORD_0" : 9
                    },
                    "indices" : 3,
                    "material" : 0
                }
            ]
        },
        {
            "name" : "Cube.009",
            "primitives" : [
                {
                    "attributes" : {
                        "POSITION" : 10,
                        "NORMAL" : 11,
                        "TEXCOORD_0" : 12
                    },
                    "indices" : 3,
                    "material" : 0
                }
            ]
        },
        {
            "name" : "Object_0",
            "primitives" : [
                {
                    "attributes" : {
                        "POSITION" : 13,
                        "NORMAL" : 14,
                        "TEXCOORD_0" : 15
                    },
                    "indices" : 16,
                    "material" : 1
                }
            ]
        }
    ],
    "textures" : [
        {
            "sampler" : 0,
            "source" : 0
        }
    ],
    "images" : [
        {
            "bufferView" : 17,
            "mimeType" : "image/png",
            "name" : "initialShadingGroup_baseColor"
        }
    ],
    "accessors" : [
        {
            "bufferView" : 0,
            "componentType" : 5126,
            "count" : 168,
            "max" : [
                1,
                4.16444206237793,
                1.0000001192092896
            ],
            "min" : [
                -15.17819595336914,
                -4.090959072113037,
                -1.0000001192092896
            ],
            "type" : "VEC3"
        },
        {
            "bufferView" : 1,
            "componentType" : 5126,
            "count" : 168,
            "type" : "VEC3"
        },
        {
            "bufferView" : 2,
            "componentType" : 5126,
            "count" : 168,
            "type" : "VEC2"
        },
        {
            "bufferView" : 3,
            "componentType" : 5123,
            "count" : 252,
            "type" : "SCALAR"
        },
        {
            "bufferView" : 4,
            "componentType" : 5126,
            "count" : 168,
            "max" : [
                1,
                4.16444206237793,
                1.0000001192092896
            ],
            "min" : [
                -15.17819595336914,
                -4.090959072113037,
                -1.0000001192092896
            ],
            "type" : "VEC3"
        },
        {
            "bufferView" : 5,
            "componentType" : 5126,
            "count" : 168,
            "type" : "VEC3"
        },
        {
            "bufferView" : 6,
            "componentType" : 5126,
            "count" : 168,
            "type" : "VEC2"
        },
        {
            "bufferView" : 7,
            "componentType" : 5126,
            "count" : 168,
            "max" : [
                1,
                4.16444206237793,
                1.0000001192092896
            ],
            "min" : [
                -15.17819595336914,
                -4.090959072113037,
                -1.0000001192092896
            ],
            "type" : "VEC3"
        },
        {
            "bufferView" : 8,
            "componentType" : 5126,
            "count" : 168,
            "type" : "VEC3"
        },
        {
            "bufferView" : 9,
            "componentType" : 5126,
            "count" : 168,
            "type" : "VEC2"
        },
        {
            "bufferView" : 10,
            "componentType" : 5126,
            "count" : 168,
            "max" : [
                1,
                4.16444206237793,
                1.0000001192092896
            ],
            "min" : [
                -15.17819595336914,
                -4.090959072113037,
                -1.0000001192092896
            ],
            "type" : "VEC3"
        },
        {
            "bufferView" : 11,
            "componentType" : 5126,
            "count" : 168,
            "type" : "VEC3"
        },
        {
            "bufferView" : 12,
            "componentType" : 5126,
            "count" : 168,
            "type" : "VEC2"
        },
        {
            "bufferView" : 13,
            "componentType" : 5126,
            "count" : 2821,
            "max" : [
                10.886621475219727,
                11.658748626708984,
                3.3168230056762695
            ],
            "min" : [
                -10.886621475219727,
                -11.660774230957031,
                -3.4637560844421387
            ],
            "type" : "VEC3"
        },
        {
            "bufferView" : 14,
            "componentType" : 5126,
            "count" : 2821,
            "type" : "VEC3"
        },
        {
            "bufferView" : 15,
            "componentType" : 5126,
            "count" : 2821,
            "type" : "VEC2"
        },
        {
            "bufferView" : 16,
            "componentType" : 5123,
            "count" : 4146,
            "type" : "SCALAR"
        }
    ],
    "bufferViews" : [
        {
            "buffer" : 0,
            "byteLength" : 2016,
            "byteOffset" : 0
        },
        {
            "buffer" : 0,
            "byteLength" : 2016,
            "byteOffset" : 2016
        },
        {
            "buffer" : 0,
            "byteLength" : 1344,
            "byteOffset" : 4032
        },
        {
            "buffer" : 0,
            "byteLength" : 504,
            "byteOffset" : 5376
        },
        {
            "buffer" : 0,
            "byteLength" : 2016,
            "byteOffset" : 5880
        },
        {
            "buffer" : 0,
            "byteLength" : 2016,
            "byteOffset" : 7896
        },
        {
            "buffer" : 0,
            "byteLength" : 1344,
            "byteOffset" : 9912
        },
        {
            "buffer" : 0,
            "byteLength" : 2016,
            "byteOffset" : 11256
        },
        {
            "buffer" : 0,
            "byteLength" : 2016,
            "byteOffset" : 13272
        },
        {
            "buffer" : 0,
            "byteLength" : 1344,
            "byteOffset" : 15288
        },
        {
            "buffer" : 0,
            "byteLength" : 2016,
            "byteOffset" : 16632
        },
        {
            "buffer" : 0,
            "byteLength" : 2016,
            "byteOffset" : 18648
        },
        {
            "buffer" : 0,
            "byteLength" : 1344,
            "byteOffset" : 20664
        },
        {
            "buffer" : 0,
            "byteLength" : 33852,
            "byteOffset" : 22008
        },
        {
            "buffer" : 0,
            "byteLength" : 33852,
            "byteOffset" : 55860
        },
        {
            "buffer" : 0,
            "byteLength" : 22568,
            "byteOffset" : 89712
        },
        {
            "buffer" : 0,
            "byteLength" : 8292,
            "byteOffset" : 112280
        },
        {
            "buffer" : 0,
            "byteLength" : 21484,
            "byteOffset" : 120572
        }
    ],
    "samplers" : [
        {
            "magFilter" : 9728,
            "minFilter" : 9984
        }
    ],
    "buffers" : [
        {
            "byteLength" : 142056,
            "uri" : "data:application/octet-stream;base64,"
        }
    ]
}
